<svg id="Capa_1" enable-background="new 0 0 512 512" height="512" viewBox="0 0 512 512" width="512" xmlns="http://www.w3.org/2000/svg"><g><g><path d="m95.16 512-24.961-16.641 73.843-106.97 24.961 16.64z" fill="#575f64"/></g><g><path d="m386.84 512-73.843-106.971 24.961-16.64 73.843 106.97z" fill="#474f54"/></g><g><path d="m16 240h45v30h-45z" fill="#575f64"/></g><g><path d="m421 240h45v30h-45z" fill="#474f54"/></g><g><path d="m226 435h30v45h-30z" fill="#575f64"/></g><path d="m241 435h15v45h-15z" fill="#474f54"/><g><path d="m226 30h30v45h-30z" fill="#575f64"/></g><path d="m241 30h15v45h-15z" fill="#474f54"/><g><path d="m241 450c-107.52 0-195-87.48-195-195s87.48-195 195-195 195 87.48 195 195-87.48 195-195 195z" fill="#ff641a"/></g><path d="m436 255c0-107.52-87.48-195-195-195v390c107.52 0 195-87.48 195-195z" fill="#f03800"/><g><path d="m241 390c-74.443 0-135-60.557-135-135s60.557-135 135-135 135 60.557 135 135-60.557 135-135 135z" fill="#fee274"/></g><path d="m376 255c0-74.443-60.557-135-135-135v270c74.443 0 135-60.557 135-135z" fill="#fabe2c"/><circle cx="241" cy="255" fill="#ff641a" r="75"/><path d="m316 255c0-41.422-33.578-75-75-75v150c41.422 0 75-33.578 75-75z" fill="#f03800"/><g id="Focus_2_"><path d="m496 38.789-38.789-38.789h-48.501l-16.523 82.603-116.792 116.792 21.21 21.21 116.792-116.792 82.603-16.523z" fill="#575f64"/></g><path d="m496 38.789-19.395-19.394-190.605 190.605 10.605 10.605 116.792-116.792 82.603-16.523z" fill="#474f54"/><g><path d="m221.898 274.102 24.961-124.453 99.492 99.492z" fill="#f0f7ff"/></g><path d="m296.605 199.395-74.707 74.707 124.454-24.961z" fill="#c7cfe1"/></g></svg>